<mxfile host="app.diagrams.net" modified="2022-09-05T03:19:50.743Z" agent="5.0 (Windows NT 10.0; Win64; x64) AppleWebKit/537.36 (KHTML, like Gecko) Chrome/105.0.0.0 Safari/537.36" etag="pKUyYWEL8lcbX4bP3VSz" version="20.2.8" type="github">
  <diagram name="Page-1" id="5f0bae14-7c28-e335-631c-24af17079c00">
    <mxGraphModel dx="868" dy="1300" grid="1" gridSize="10" guides="1" tooltips="1" connect="1" arrows="1" fold="1" page="1" pageScale="1" pageWidth="1100" pageHeight="850" background="none" math="0" shadow="0">
      <root>
        <mxCell id="0" />
        <mxCell id="1" parent="0" />
        <mxCell id="Oka28kJbKJAmL_zpxBXA-49" value="Movie Details Master (Document Store)" style="aspect=fixed;perimeter=ellipsePerimeter;html=1;align=center;shadow=0;dashed=0;spacingTop=3;image;image=img/lib/active_directory/database_partition_5.svg;" parent="1" vertex="1">
          <mxGeometry x="78.86000000000001" y="-130" width="81.08" height="60" as="geometry" />
        </mxCell>
        <mxCell id="Oka28kJbKJAmL_zpxBXA-50" value="" style="sketch=0;html=1;dashed=0;whitespace=wrap;fillColor=#2875E2;strokeColor=#ffffff;points=[[0.005,0.63,0],[0.1,0.2,0],[0.9,0.2,0],[0.5,0,0],[0.995,0.63,0],[0.72,0.99,0],[0.5,1,0],[0.28,0.99,0]];shape=mxgraph.kubernetes.icon;prIcon=api" parent="1" vertex="1">
          <mxGeometry x="93.39999999999998" y="-206" width="50" height="48" as="geometry" />
        </mxCell>
        <mxCell id="Oka28kJbKJAmL_zpxBXA-51" value="" style="sketch=0;html=1;dashed=0;whitespace=wrap;fillColor=#2875E2;strokeColor=#ffffff;points=[[0.005,0.63,0],[0.1,0.2,0],[0.9,0.2,0],[0.5,0,0],[0.995,0.63,0],[0.72,0.99,0],[0.5,1,0],[0.28,0.99,0]];shape=mxgraph.kubernetes.icon;prIcon=api" parent="1" vertex="1">
          <mxGeometry x="319" y="-206" width="50" height="48" as="geometry" />
        </mxCell>
        <mxCell id="Oka28kJbKJAmL_zpxBXA-55" value="" style="sketch=0;html=1;dashed=0;whitespace=wrap;fillColor=#2875E2;strokeColor=#ffffff;points=[[0.005,0.63,0],[0.1,0.2,0],[0.9,0.2,0],[0.5,0,0],[0.995,0.63,0],[0.72,0.99,0],[0.5,1,0],[0.28,0.99,0]];shape=mxgraph.kubernetes.icon;prIcon=api" parent="1" vertex="1">
          <mxGeometry x="44.860000000000014" y="-449" width="50" height="48" as="geometry" />
        </mxCell>
        <mxCell id="Oka28kJbKJAmL_zpxBXA-56" value="External Theatre&lt;br&gt;&amp;nbsp;APIs" style="text;html=1;align=center;verticalAlign=middle;resizable=0;points=[];autosize=1;strokeColor=none;fillColor=none;" parent="1" vertex="1">
          <mxGeometry x="23.860000000000007" y="-480" width="110" height="40" as="geometry" />
        </mxCell>
        <mxCell id="Oka28kJbKJAmL_zpxBXA-57" value="get All other event list from varous channel" style="edgeStyle=orthogonalEdgeStyle;rounded=0;orthogonalLoop=1;jettySize=auto;html=1;" parent="1" edge="1">
          <mxGeometry x="0.8631" relative="1" as="geometry">
            <mxPoint x="148.39999999999998" y="-337" as="sourcePoint" />
            <mxPoint x="344" y="-419" as="targetPoint" />
            <Array as="points">
              <mxPoint x="344" y="-337" />
            </Array>
            <mxPoint as="offset" />
          </mxGeometry>
        </mxCell>
        <mxCell id="Oka28kJbKJAmL_zpxBXA-79" style="edgeStyle=orthogonalEdgeStyle;rounded=0;orthogonalLoop=1;jettySize=auto;html=1;entryX=0.5;entryY=0;entryDx=0;entryDy=0;entryPerimeter=0;" parent="1" source="Oka28kJbKJAmL_zpxBXA-59" target="Oka28kJbKJAmL_zpxBXA-51" edge="1">
          <mxGeometry relative="1" as="geometry" />
        </mxCell>
        <mxCell id="Oka28kJbKJAmL_zpxBXA-59" value="" style="sketch=0;html=1;dashed=0;whitespace=wrap;fillColor=#2875E2;strokeColor=#ffffff;points=[[0.005,0.63,0],[0.1,0.2,0],[0.9,0.2,0],[0.5,0,0],[0.995,0.63,0],[0.72,0.99,0],[0.5,1,0],[0.28,0.99,0]];shape=mxgraph.kubernetes.icon;prIcon=api" parent="1" vertex="1">
          <mxGeometry x="196.39999999999998" y="-361" width="50" height="48" as="geometry" />
        </mxCell>
        <mxCell id="Oka28kJbKJAmL_zpxBXA-60" value="&lt;span style=&quot;color: rgb(0, 0, 0); font-family: Helvetica; font-size: 11px; font-style: normal; font-variant-ligatures: normal; font-variant-caps: normal; font-weight: 400; letter-spacing: normal; orphans: 2; text-align: center; text-indent: 0px; text-transform: none; widows: 2; word-spacing: 0px; -webkit-text-stroke-width: 0px; background-color: rgb(255, 255, 255); text-decoration-thickness: initial; text-decoration-style: initial; text-decoration-color: initial; float: none; display: inline !important;&quot;&gt;getMovieDetails&lt;/span&gt;&lt;br style=&quot;color: rgb(0, 0, 0); font-family: Helvetica; font-size: 11px; font-style: normal; font-variant-ligatures: normal; font-variant-caps: normal; font-weight: 400; letter-spacing: normal; orphans: 2; text-align: center; text-indent: 0px; text-transform: none; widows: 2; word-spacing: 0px; -webkit-text-stroke-width: 0px; text-decoration-thickness: initial; text-decoration-style: initial; text-decoration-color: initial;&quot;&gt;&lt;span style=&quot;color: rgb(0, 0, 0); font-family: Helvetica; font-size: 11px; font-style: normal; font-variant-ligatures: normal; font-variant-caps: normal; font-weight: 400; letter-spacing: normal; orphans: 2; text-align: center; text-indent: 0px; text-transform: none; widows: 2; word-spacing: 0px; -webkit-text-stroke-width: 0px; background-color: rgb(255, 255, 255); text-decoration-thickness: initial; text-decoration-style: initial; text-decoration-color: initial; float: none; display: inline !important;&quot;&gt;getMovieListByGenre&lt;/span&gt;&lt;br style=&quot;color: rgb(0, 0, 0); font-family: Helvetica; font-size: 11px; font-style: normal; font-variant-ligatures: normal; font-variant-caps: normal; font-weight: 400; letter-spacing: normal; orphans: 2; text-align: center; text-indent: 0px; text-transform: none; widows: 2; word-spacing: 0px; -webkit-text-stroke-width: 0px; text-decoration-thickness: initial; text-decoration-style: initial; text-decoration-color: initial;&quot;&gt;&lt;span style=&quot;color: rgb(0, 0, 0); font-family: Helvetica; font-size: 11px; font-style: normal; font-variant-ligatures: normal; font-variant-caps: normal; font-weight: 400; letter-spacing: normal; orphans: 2; text-align: center; text-indent: 0px; text-transform: none; widows: 2; word-spacing: 0px; -webkit-text-stroke-width: 0px; background-color: rgb(255, 255, 255); text-decoration-thickness: initial; text-decoration-style: initial; text-decoration-color: initial; float: none; display: inline !important;&quot;&gt;getMovieListByLangauge&lt;/span&gt;&lt;br style=&quot;color: rgb(0, 0, 0); font-family: Helvetica; font-size: 11px; font-style: normal; font-variant-ligatures: normal; font-variant-caps: normal; font-weight: 400; letter-spacing: normal; orphans: 2; text-align: center; text-indent: 0px; text-transform: none; widows: 2; word-spacing: 0px; -webkit-text-stroke-width: 0px; text-decoration-thickness: initial; text-decoration-style: initial; text-decoration-color: initial;&quot;&gt;&lt;span style=&quot;color: rgb(0, 0, 0); font-family: Helvetica; font-size: 11px; font-style: normal; font-variant-ligatures: normal; font-variant-caps: normal; font-weight: 400; letter-spacing: normal; orphans: 2; text-align: center; text-indent: 0px; text-transform: none; widows: 2; word-spacing: 0px; -webkit-text-stroke-width: 0px; background-color: rgb(255, 255, 255); text-decoration-thickness: initial; text-decoration-style: initial; text-decoration-color: initial; float: none; display: inline !important;&quot;&gt;GetMovieListByTrends&lt;/span&gt;" style="edgeStyle=orthogonalEdgeStyle;rounded=0;orthogonalLoop=1;jettySize=auto;html=1;entryX=0.5;entryY=0;entryDx=0;entryDy=0;entryPerimeter=0;" parent="1" source="Oka28kJbKJAmL_zpxBXA-59" target="Oka28kJbKJAmL_zpxBXA-50" edge="1">
          <mxGeometry x="0.6837" y="2" relative="1" as="geometry">
            <mxPoint as="offset" />
          </mxGeometry>
        </mxCell>
        <mxCell id="Oka28kJbKJAmL_zpxBXA-62" value="Event/Show Schema" style="image;html=1;image=img/lib/clip_art/computers/Database_128x128.png" parent="1" vertex="1">
          <mxGeometry x="310" y="-130" width="80" height="80" as="geometry" />
        </mxCell>
        <mxCell id="Oka28kJbKJAmL_zpxBXA-63" value="" style="edgeStyle=orthogonalEdgeStyle;rounded=0;orthogonalLoop=1;jettySize=auto;html=1;entryX=0.425;entryY=0;entryDx=0;entryDy=0;entryPerimeter=0;" parent="1" source="Oka28kJbKJAmL_zpxBXA-51" target="Oka28kJbKJAmL_zpxBXA-62" edge="1">
          <mxGeometry relative="1" as="geometry" />
        </mxCell>
        <mxCell id="Oka28kJbKJAmL_zpxBXA-64" value="Theatre Schema" style="image;html=1;image=img/lib/clip_art/computers/Database_128x128.png" parent="1" vertex="1">
          <mxGeometry x="544" y="-130" width="80" height="80" as="geometry" />
        </mxCell>
        <mxCell id="Oka28kJbKJAmL_zpxBXA-65" style="edgeStyle=orthogonalEdgeStyle;rounded=0;orthogonalLoop=1;jettySize=auto;html=1;entryX=0.5;entryY=0;entryDx=0;entryDy=0;" parent="1" source="Oka28kJbKJAmL_zpxBXA-52" target="Oka28kJbKJAmL_zpxBXA-64" edge="1">
          <mxGeometry relative="1" as="geometry">
            <mxPoint x="580" y="-130" as="targetPoint" />
          </mxGeometry>
        </mxCell>
        <mxCell id="Oka28kJbKJAmL_zpxBXA-67" value="Booking Schema" style="image;html=1;image=img/lib/clip_art/computers/Database_128x128.png" parent="1" vertex="1">
          <mxGeometry x="650" y="-130" width="80" height="80" as="geometry" />
        </mxCell>
        <mxCell id="Oka28kJbKJAmL_zpxBXA-68" value="" style="edgeStyle=orthogonalEdgeStyle;rounded=0;orthogonalLoop=1;jettySize=auto;html=1;entryX=0.5;entryY=0;entryDx=0;entryDy=0;" parent="1" source="Oka28kJbKJAmL_zpxBXA-53" edge="1">
          <mxGeometry relative="1" as="geometry">
            <mxPoint x="689" y="-130" as="targetPoint" />
          </mxGeometry>
        </mxCell>
        <mxCell id="Oka28kJbKJAmL_zpxBXA-69" value="" style="edgeStyle=orthogonalEdgeStyle;rounded=0;orthogonalLoop=1;jettySize=auto;html=1;entryX=0.5;entryY=0;entryDx=0;entryDy=0;" parent="1" source="Oka28kJbKJAmL_zpxBXA-50" target="Oka28kJbKJAmL_zpxBXA-49" edge="1">
          <mxGeometry relative="1" as="geometry" />
        </mxCell>
        <mxCell id="Oka28kJbKJAmL_zpxBXA-73" style="edgeStyle=orthogonalEdgeStyle;rounded=0;orthogonalLoop=1;jettySize=auto;html=1;entryX=0.995;entryY=0.63;entryDx=0;entryDy=0;entryPerimeter=0;" parent="1" source="Oka28kJbKJAmL_zpxBXA-70" target="Oka28kJbKJAmL_zpxBXA-55" edge="1">
          <mxGeometry relative="1" as="geometry">
            <Array as="points">
              <mxPoint x="791" y="-419" />
            </Array>
          </mxGeometry>
        </mxCell>
        <mxCell id="Oka28kJbKJAmL_zpxBXA-74" value="getBookingDetails&lt;br&gt;updateBookingDetails&lt;br&gt;addBookingAuditHistory" style="edgeLabel;html=1;align=center;verticalAlign=middle;resizable=0;points=[];" parent="Oka28kJbKJAmL_zpxBXA-73" vertex="1" connectable="0">
          <mxGeometry x="-0.5091" y="1" relative="1" as="geometry">
            <mxPoint x="-42" as="offset" />
          </mxGeometry>
        </mxCell>
        <mxCell id="Oka28kJbKJAmL_zpxBXA-75" value="Service Factory Patern" style="swimlane;fontStyle=3;fillColor=#f8cecc;strokeColor=#b85450;" parent="1" vertex="1">
          <mxGeometry x="532" y="-470" width="270" height="260" as="geometry" />
        </mxCell>
        <mxCell id="Oka28kJbKJAmL_zpxBXA-76" value="System APIs" style="swimlane;fillColor=#dae8fc;strokeColor=#6c8ebf;" parent="Oka28kJbKJAmL_zpxBXA-75" vertex="1">
          <mxGeometry x="-510" y="170" width="751" height="150" as="geometry" />
        </mxCell>
        <mxCell id="Oka28kJbKJAmL_zpxBXA-52" value="" style="sketch=0;html=1;dashed=0;whitespace=wrap;fillColor=#2875E2;strokeColor=#ffffff;points=[[0.005,0.63,0],[0.1,0.2,0],[0.9,0.2,0],[0.5,0,0],[0.995,0.63,0],[0.72,0.99,0],[0.5,1,0],[0.28,0.99,0]];shape=mxgraph.kubernetes.icon;prIcon=api" parent="Oka28kJbKJAmL_zpxBXA-76" vertex="1">
          <mxGeometry x="537" y="90" width="50" height="48" as="geometry" />
        </mxCell>
        <mxCell id="Oka28kJbKJAmL_zpxBXA-53" value="" style="sketch=0;html=1;dashed=0;whitespace=wrap;fillColor=#2875E2;strokeColor=#ffffff;points=[[0.005,0.63,0],[0.1,0.2,0],[0.9,0.2,0],[0.5,0,0],[0.995,0.63,0],[0.72,0.99,0],[0.5,1,0],[0.28,0.99,0]];shape=mxgraph.kubernetes.icon;prIcon=api" parent="Oka28kJbKJAmL_zpxBXA-76" vertex="1">
          <mxGeometry x="642" y="90" width="50" height="48" as="geometry" />
        </mxCell>
        <mxCell id="Oka28kJbKJAmL_zpxBXA-70" value="" style="sketch=0;html=1;dashed=0;whitespace=wrap;fillColor=#2875E2;strokeColor=#ffffff;points=[[0.005,0.63,0],[0.1,0.2,0],[0.9,0.2,0],[0.5,0,0],[0.995,0.63,0],[0.72,0.99,0],[0.5,1,0],[0.28,0.99,0]];shape=mxgraph.kubernetes.icon;prIcon=api" parent="Oka28kJbKJAmL_zpxBXA-75" vertex="1">
          <mxGeometry x="126" y="106" width="50" height="48" as="geometry" />
        </mxCell>
        <mxCell id="Oka28kJbKJAmL_zpxBXA-71" value="createBooking&lt;br&gt;updateBooking" style="text;html=1;align=center;verticalAlign=middle;resizable=0;points=[];autosize=1;strokeColor=none;fillColor=none;" parent="Oka28kJbKJAmL_zpxBXA-75" vertex="1">
          <mxGeometry x="10" y="106" width="100" height="40" as="geometry" />
        </mxCell>
        <mxCell id="Oka28kJbKJAmL_zpxBXA-81" value="Process APIs" style="swimlane;fillColor=#dae8fc;strokeColor=#6c8ebf;" parent="Oka28kJbKJAmL_zpxBXA-75" vertex="1">
          <mxGeometry x="10" y="80" width="200" height="80" as="geometry" />
        </mxCell>
        <mxCell id="Oka28kJbKJAmL_zpxBXA-72" value="&lt;span style=&quot;color: rgb(0, 0, 0); font-family: Helvetica; font-size: 11px; font-style: normal; font-variant-ligatures: normal; font-variant-caps: normal; font-weight: 400; letter-spacing: normal; orphans: 2; text-align: center; text-indent: 0px; text-transform: none; widows: 2; word-spacing: 0px; -webkit-text-stroke-width: 0px; background-color: rgb(255, 255, 255); text-decoration-thickness: initial; text-decoration-style: initial; text-decoration-color: initial; float: none; display: inline !important;&quot;&gt;get BMSBookingDetails&lt;/span&gt;&lt;br style=&quot;color: rgb(0, 0, 0); font-family: Helvetica; font-size: 11px; font-style: normal; font-variant-ligatures: normal; font-variant-caps: normal; font-weight: 400; letter-spacing: normal; orphans: 2; text-align: center; text-indent: 0px; text-transform: none; widows: 2; word-spacing: 0px; -webkit-text-stroke-width: 0px; text-decoration-thickness: initial; text-decoration-style: initial; text-decoration-color: initial;&quot;&gt;&lt;span style=&quot;color: rgb(0, 0, 0); font-family: Helvetica; font-size: 11px; font-style: normal; font-variant-ligatures: normal; font-variant-caps: normal; font-weight: 400; letter-spacing: normal; orphans: 2; text-align: center; text-indent: 0px; text-transform: none; widows: 2; word-spacing: 0px; -webkit-text-stroke-width: 0px; background-color: rgb(255, 255, 255); text-decoration-thickness: initial; text-decoration-style: initial; text-decoration-color: initial; float: none; display: inline !important;&quot;&gt;updateBMSBookingDetails&lt;/span&gt;&lt;br style=&quot;color: rgb(0, 0, 0); font-family: Helvetica; font-size: 11px; font-style: normal; font-variant-ligatures: normal; font-variant-caps: normal; font-weight: 400; letter-spacing: normal; orphans: 2; text-align: center; text-indent: 0px; text-transform: none; widows: 2; word-spacing: 0px; -webkit-text-stroke-width: 0px; text-decoration-thickness: initial; text-decoration-style: initial; text-decoration-color: initial;&quot;&gt;&lt;span style=&quot;color: rgb(0, 0, 0); font-family: Helvetica; font-size: 11px; font-style: normal; font-variant-ligatures: normal; font-variant-caps: normal; font-weight: 400; letter-spacing: normal; orphans: 2; text-align: center; text-indent: 0px; text-transform: none; widows: 2; word-spacing: 0px; -webkit-text-stroke-width: 0px; background-color: rgb(255, 255, 255); text-decoration-thickness: initial; text-decoration-style: initial; text-decoration-color: initial; float: none; display: inline !important;&quot;&gt;addBMSBookingAuditHistory&lt;/span&gt;" style="edgeStyle=orthogonalEdgeStyle;rounded=0;orthogonalLoop=1;jettySize=auto;html=1;entryX=0.5;entryY=0;entryDx=0;entryDy=0;entryPerimeter=0;" parent="Oka28kJbKJAmL_zpxBXA-75" source="Oka28kJbKJAmL_zpxBXA-70" target="Oka28kJbKJAmL_zpxBXA-53" edge="1">
          <mxGeometry x="0.4188" y="-1" relative="1" as="geometry">
            <mxPoint as="offset" />
          </mxGeometry>
        </mxCell>
        <mxCell id="Oka28kJbKJAmL_zpxBXA-78" value="Aggregation pattern (Using Scatter-Gather)" style="swimlane;fillColor=#f8cecc;strokeColor=#b85450;" parent="1" vertex="1">
          <mxGeometry x="190" y="-470" width="320" height="230" as="geometry" />
        </mxCell>
        <mxCell id="Oka28kJbKJAmL_zpxBXA-54" value="getShowDetails" style="text;html=1;align=center;verticalAlign=middle;resizable=0;points=[];autosize=1;strokeColor=none;fillColor=none;" parent="Oka28kJbKJAmL_zpxBXA-78" vertex="1">
          <mxGeometry x="40" y="106" width="110" height="30" as="geometry" />
        </mxCell>
        <mxCell id="Oka28kJbKJAmL_zpxBXA-80" value="Experience APIs" style="swimlane;fillColor=#dae8fc;strokeColor=#6c8ebf;" parent="Oka28kJbKJAmL_zpxBXA-78" vertex="1">
          <mxGeometry x="4" y="80" width="200" height="80" as="geometry" />
        </mxCell>
        <mxCell id="Oka28kJbKJAmL_zpxBXA-82" value="Micro-service Pattern" style="swimlane;fillColor=#f8cecc;strokeColor=#b85450;" parent="1" vertex="1">
          <mxGeometry x="10" y="-500" width="810" height="360" as="geometry" />
        </mxCell>
        <mxCell id="Oka28kJbKJAmL_zpxBXA-83" value="getShowDetails" style="text;html=1;align=center;verticalAlign=middle;resizable=0;points=[];autosize=1;strokeColor=none;fillColor=none;" parent="Oka28kJbKJAmL_zpxBXA-82" vertex="1">
          <mxGeometry x="40" y="106" width="110" height="30" as="geometry" />
        </mxCell>
        <mxCell id="y7M0jYMAa6iS2lez83Jc-1" value="Component Diagram and Design Patterns" style="text;html=1;align=center;verticalAlign=middle;resizable=0;points=[];autosize=1;strokeColor=none;fillColor=none;fontSize=31;" vertex="1" parent="1">
          <mxGeometry x="130" y="-575" width="600" height="50" as="geometry" />
        </mxCell>
      </root>
    </mxGraphModel>
  </diagram>
</mxfile>
